<svg width="14" height="14" viewBox="0 0 14 14" fill="none" xmlns="http://www.w3.org/2000/svg">
<path d="M12.946 2.08999L8.97734 12.81C8.72667 13.4873 8.00467 13.8353 7.36534 13.5867C7.20701 13.5239 7.06339 13.4291 6.94349 13.3082C6.82359 13.1873 6.73002 13.0428 6.66867 12.884L5.41067 9.70399C5.17426 9.09355 4.70562 8.60166 4.10734 8.33599L1.07934 7.01532C0.449336 6.73999 0.162669 5.97666 0.438003 5.30999C0.503128 5.14902 0.599529 5.00256 0.721629 4.87908C0.843728 4.75561 0.989101 4.65758 1.14934 4.59066L11.36 0.423989C12.0047 0.160655 12.72 0.491322 12.9567 1.16332C13.0613 1.46066 13.0573 1.78999 12.9467 2.08999H12.946Z" fill="#D8D8D8"/>
</svg>
