<svg width="14" height="14" viewBox="0 0 14 14" fill="none" xmlns="http://www.w3.org/2000/svg">
<path d="M12.946 2.09L8.97734 12.81C8.72667 13.4873 8.00467 13.8353 7.36534 13.5867C7.20701 13.524 7.06339 13.4291 6.94349 13.3082C6.82359 13.1873 6.73002 13.0429 6.66867 12.884L5.41067 9.704C5.17426 9.09357 4.70562 8.60167 4.10734 8.336L1.07934 7.01533C0.449336 6.74 0.162669 5.97667 0.438003 5.31C0.503128 5.14903 0.599529 5.00257 0.721629 4.87909C0.843728 4.75562 0.989101 4.65759 1.14934 4.59067L11.36 0.424C12.0047 0.160667 12.72 0.491333 12.9567 1.16333C13.0613 1.46067 13.0573 1.79 12.9467 2.09H12.946Z" fill="#787878"/>
</svg>
